Coordinates
version=1
nRows=5
nColumns=40
inDegrees=yes

Units are S.I. units (second, meters, Newtons, ...)
Angles are in degrees.

endheader
time	pelvis_tilt	pelvis_list	pelvis_rotation	pelvis_tx	pelvis_ty	pelvis_tz	hip_flexion_r	hip_adduction_r	hip_rotation_r	knee_angle_r	knee_angle_r_beta	ankle_angle_r	subtalar_angle_r	mtp_angle_r	hip_flexion_l	hip_adduction_l	hip_rotation_l	knee_angle_l	knee_angle_l_beta	ankle_angle_l	subtalar_angle_l	mtp_angle_l	lumbar_extension	lumbar_bending	lumbar_rotation	arm_flex_r	arm_add_r	arm_rot_r	elbow_flex_r	pro_sup_r	wrist_flex_r	wrist_dev_r	arm_flex_l	arm_add_l	arm_rot_l	elbow_flex_l	pro_sup_l	wrist_flex_l	wrist_dev_l
     45.65000000	     -6.58623197	     -2.90437857	      2.65832776	      0.95872502	      0.91024393	      0.49738538	     29.26611310	     -1.65964077	    -14.11875407	     27.40244033	     27.40244033	      6.46250597	     -8.20195146	     -0.84786192	     10.15848256	     -9.65602549	     -2.78009097	     45.93003755	     45.93003755	     11.64036977	    -10.42693774	    -11.21416633	    -12.09344145	      4.81868062	      1.46657894	     -2.44808778	    -13.79224673	     -1.22610159	     29.19328923	     46.10461276	      0.00000000	      0.00000000	     15.13831950	    -16.94815441	      1.64226284	     83.98844785	     47.64555855	      0.00000000	      0.00000000
     45.66171429	     -6.60162956	     -2.96668750	      2.88841134	      0.95817823	      0.91167105	      0.49965536	     28.46852427	     -1.55032042	    -14.71509472	     26.98660058	     26.98660058	      7.09142010	     -7.35688038	     -0.89472526	     12.79107726	     -9.81011972	     -1.82239147	     50.65188032	     50.65188032	     11.41088804	    -12.02738610	     -5.96241350	    -11.97933885	      4.95343277	      1.56251848	     -0.04889267	    -14.09765921	      0.00026388	     29.06413770	     46.04814255	      0.00000000	      0.00000000	     14.21161414	    -15.99425964	      1.42152366	     79.46195786	     47.63212906	      0.00000000	      0.00000000
     45.67342857	     -6.54186011	     -3.22395372	      3.04858040	      0.95753548	      0.91302439	      0.50217417	     27.58004050	     -1.13781000	    -15.20556653	     26.47786664	     26.47786664	      7.55111772	     -6.78890907	     -1.07299243	     15.24769698	    -10.33788262	     -1.25089736	     54.79704715	     54.79704715	      9.78150968	    -13.93234869	     -4.99121683	    -12.10394793	      5.20694328	      1.77815966	      2.16767586	    -14.38729424	      0.01084447	     29.90996694	     46.03157975	      0.00000000	      0.00000000	     12.60708517	    -15.51716043	      1.67496442	     77.35417730	     47.57260853	      0.00000000	      0.00000000
     45.68514286	     -6.40123790	     -3.45312955	      3.08927671	      0.95678912	      0.91440104	      0.50466706	     26.67828147	     -0.72201490	    -15.60186586	     26.07242603	     26.07242603	      7.96590706	     -6.19581895	     -1.25841827	     17.57985091	    -10.88841975	     -0.92284044	     58.64899025	     58.64899025	      8.50474105	    -15.58956835	     -3.96566280	    -12.32924157	      5.45895205	      2.22515464	      4.53044893	    -14.79049895	      0.01880406	     30.75024767	     46.01648440	      0.00000000	      0.00000000	     11.06327397	    -14.90271991	      1.92281552	     75.29310076	     47.51314337	      0.00000000	      0.00000000
     45.69685714	     -6.43369780	     -3.53641869	      3.19739503	      0.95579042	      0.91566757	      0.50682226	     25.84793700	     -0.56147247	    -16.29689377	     25.47980719	     25.47980719	      8.32894461	     -5.06164422	     -1.77260193	     20.42577250	    -11.04767866	     -0.30464983	     62.86238382	     62.86238382	     10.68373392	    -15.68208573	      5.04220471	    -12.20749716	      5.53790273	      2.45439726	      6.82072037	    -15.31730985	      1.89976727	     31.37378499	     45.88750203	      0.00000000	      0.00000000	     10.59531657	    -13.61386751	      0.96998219	     69.38755028	     47.49833455	      0.00000000	      0.00000000
